<svg width="492" height="335" viewBox="0 0 492 335" fill="none" xmlns="http://www.w3.org/2000/svg">
<mask id="path-1-inside-1_14_5849" fill="white">
<path fill-rule="evenodd" clip-rule="evenodd" d="M237.74 334.647L492 167.324L237.74 8.01086e-05V106.273H0V229.093H237.74V334.647Z"/>
</mask>
<path d="M492 167.324L493.649 169.83L497.457 167.324L493.649 164.818L492 167.324ZM237.74 334.647H234.74V340.213L239.389 337.154L237.74 334.647ZM237.74 8.01086e-05L239.389 -2.50596L234.74 -5.56549V8.01086e-05H237.74ZM237.74 106.273V109.273H240.74V106.273H237.74ZM0 106.273V103.273H-3V106.273H0ZM0 229.093H-3V232.093H0V229.093ZM237.74 229.093H240.74V226.093H237.74V229.093ZM490.351 164.818L236.091 332.141L239.389 337.154L493.649 169.83L490.351 164.818ZM236.091 2.50612L490.351 169.83L493.649 164.818L239.389 -2.50596L236.091 2.50612ZM240.74 106.273V8.01086e-05H234.74V106.273H240.74ZM0 109.273H237.74V103.273H0V109.273ZM3 229.093V106.273H-3V229.093H3ZM237.74 226.093H0V232.093H237.74V226.093ZM240.74 334.647V229.093H234.74V334.647H240.74Z" fill="#00D091" mask="url(#path-1-inside-1_14_5849)"/>
</svg>
