<svg width="148" height="172" viewBox="0 0 148 172" fill="none" xmlns="http://www.w3.org/2000/svg">
<path d="M13.9 27.8C21.5768 27.8 27.8 21.5768 27.8 13.9C27.8 6.22324 21.5768 0 13.9 0C6.22324 0 0 6.22324 0 13.9C0 21.5768 6.22324 27.8 13.9 27.8Z" fill="black"/>
<path d="M53.9 27.8C61.5768 27.8 67.8 21.5768 67.8 13.9C67.8 6.22324 61.5768 0 53.9 0C46.2232 0 40 6.22324 40 13.9C40 21.5768 46.2232 27.8 53.9 27.8Z" fill="black"/>
<path d="M93.9 27.8C101.577 27.8 107.8 21.5768 107.8 13.9C107.8 6.22324 101.577 0 93.9 0C86.2232 0 80 6.22324 80 13.9C80 21.5768 86.2232 27.8 93.9 27.8Z" fill="black"/>
<path d="M133.9 27.8C141.577 27.8 147.8 21.5768 147.8 13.9C147.8 6.22324 141.577 0 133.9 0C126.223 0 120 6.22324 120 13.9C120 21.5768 126.223 27.8 133.9 27.8Z" fill="black"/>
<path d="M13.9 75.6C21.5768 75.6 27.8 69.3767 27.8 61.7C27.8 54.0232 21.5768 47.8 13.9 47.8C6.22324 47.8 0 54.0232 0 61.7C0 69.3767 6.22324 75.6 13.9 75.6Z" fill="black"/>
<path d="M53.9 75.6C61.5768 75.6 67.8 69.3767 67.8 61.7C67.8 54.0232 61.5768 47.8 53.9 47.8C46.2232 47.8 40 54.0232 40 61.7C40 69.3767 46.2232 75.6 53.9 75.6Z" fill="black"/>
<path d="M93.9 75.6C101.577 75.6 107.8 69.3767 107.8 61.7C107.8 54.0232 101.577 47.8 93.9 47.8C86.2232 47.8 80 54.0232 80 61.7C80 69.3767 86.2232 75.6 93.9 75.6Z" fill="black"/>
<path d="M133.9 75.6C141.577 75.6 147.8 69.3767 147.8 61.7C147.8 54.0232 141.577 47.8 133.9 47.8C126.223 47.8 120 54.0232 120 61.7C120 69.3767 126.223 75.6 133.9 75.6Z" fill="black"/>
<path d="M13.9 123.5C21.5768 123.5 27.8 117.277 27.8 109.6C27.8 101.923 21.5768 95.7 13.9 95.7C6.22324 95.7 0 101.923 0 109.6C0 117.277 6.22324 123.5 13.9 123.5Z" fill="black"/>
<path d="M53.9 123.5C61.5768 123.5 67.8 117.277 67.8 109.6C67.8 101.923 61.5768 95.7 53.9 95.7C46.2232 95.7 40 101.923 40 109.6C40 117.277 46.2232 123.5 53.9 123.5Z" fill="black"/>
<path d="M93.9 123.5C101.577 123.5 107.8 117.277 107.8 109.6C107.8 101.923 101.577 95.7 93.9 95.7C86.2232 95.7 80 101.923 80 109.6C80 117.277 86.2232 123.5 93.9 123.5Z" fill="black"/>
<path d="M133.9 123.5C141.577 123.5 147.8 117.277 147.8 109.6C147.8 101.923 141.577 95.7 133.9 95.7C126.223 95.7 120 101.923 120 109.6C120 117.277 126.223 123.5 133.9 123.5Z" fill="black"/>
<path d="M13.9 171.3C21.5768 171.3 27.8 165.077 27.8 157.4C27.8 149.723 21.5768 143.5 13.9 143.5C6.22324 143.5 0 149.723 0 157.4C0 165.077 6.22324 171.3 13.9 171.3Z" fill="black"/>
<path d="M53.9 171.3C61.5768 171.3 67.8 165.077 67.8 157.4C67.8 149.723 61.5768 143.5 53.9 143.5C46.2232 143.5 40 149.723 40 157.4C40 165.077 46.2232 171.3 53.9 171.3Z" fill="black"/>
<path d="M93.9 171.3C101.577 171.3 107.8 165.077 107.8 157.4C107.8 149.723 101.577 143.5 93.9 143.5C86.2232 143.5 80 149.723 80 157.4C80 165.077 86.2232 171.3 93.9 171.3Z" fill="black"/>
<path d="M133.9 171.3C141.577 171.3 147.8 165.077 147.8 157.4C147.8 149.723 141.577 143.5 133.9 143.5C126.223 143.5 120 149.723 120 157.4C120 165.077 126.223 171.3 133.9 171.3Z" fill="black"/>
</svg>
