<svg width="353" height="166" viewBox="0 0 353 166" fill="none" xmlns="http://www.w3.org/2000/svg">
<g clip-path="url(#clip0_171_180)">
<mask id="mask0_171_180" style="mask-type:luminance" maskUnits="userSpaceOnUse" x="0" y="0" width="353" height="166">
<path d="M353 0H0V166H353V0Z" fill="white"/>
</mask>
<g mask="url(#mask0_171_180)">
<mask id="mask1_171_180" style="mask-type:luminance" maskUnits="userSpaceOnUse" x="0" y="3" width="117" height="159">
<path d="M117 3H0V162H117V3Z" fill="white"/>
</mask>
<g mask="url(#mask1_171_180)">
<path d="M32.3037 162H1.07679C0.358931 162 0 161.628 0 160.885L0.538395 4.11579C0.538395 3.37193 0.897326 3 1.61518 3H32.5729C33.2907 3 33.6497 3.37193 33.6497 4.11579V58.2317L76.8559 3.89263C77.5738 3.29754 78.2468 3 78.875 3H110.506C111.314 3 111.492 3.29754 111.044 3.89263L63.3959 66.9346L116.832 161.107C117.28 161.702 116.832 162 115.485 162H81.8362C80.9388 162 80.4003 161.702 80.2209 161.107L42.9369 93.9367L33.3805 106.434V160.885C33.3805 161.628 33.0216 162 32.3037 162Z" fill="white"/>
</g>
<mask id="mask2_171_180" style="mask-type:luminance" maskUnits="userSpaceOnUse" x="123" y="0" width="106" height="166">
<path d="M229 0H123V166H229V0Z" fill="white"/>
</mask>
<g mask="url(#mask2_171_180)">
<path d="M175.934 166C166.166 166 157.233 163.889 149.137 159.667C141.129 155.446 134.748 149.792 129.996 142.706C125.332 135.544 123 127.59 123 118.846L123.264 46.5884C123.264 37.9946 125.552 30.2297 130.128 23.2943C134.705 16.2833 140.997 10.6671 149.005 6.4455C157.101 2.1485 166.078 0 175.934 0C185.966 0 194.899 2.07311 202.731 6.21935C210.651 10.3655 216.944 15.9818 221.608 23.0681C226.36 30.079 228.736 37.919 228.736 46.5884V57.2177C228.736 57.821 228.384 58.1226 227.68 58.1226H197.319C196.615 58.1226 196.263 57.821 196.263 57.2177V46.5884C196.263 41.4622 194.327 37.0523 190.455 33.3583C186.583 29.6643 181.742 27.8174 175.934 27.8174C169.51 27.8174 164.582 29.7021 161.149 33.4714C157.717 37.2405 156.001 41.613 156.001 46.5884V118.846C156.001 124.5 157.937 129.136 161.809 132.755C165.682 136.298 170.39 138.069 175.934 138.069C181.742 138.069 186.583 136.109 190.455 132.189C194.327 128.194 196.263 123.746 196.263 118.846V108.104C196.263 107.501 196.615 107.199 197.319 107.199H227.944C228.648 107.199 229 107.501 229 108.104V118.846C229 127.516 226.624 135.431 221.872 142.593C217.032 149.678 210.651 155.37 202.731 159.667C194.811 163.889 185.878 166 175.934 166Z" fill="white"/>
</g>
<path d="M353 103.761H318.894V160.457H353V103.761Z" fill="white"/>
<path d="M353 1H318.894V57.6957H353V1Z" fill="white"/>
<path d="M353 64.7826H277.967V96.6739H353V64.7826Z" fill="white"/>
<path d="M277.967 1H243.861V161.801H277.967V1Z" fill="white"/>
</g>
</g>
<defs>
<clipPath id="clip0_171_180">
<rect width="353" height="166" fill="white"/>
</clipPath>
</defs>
</svg>
