<svg width="400" height="400" viewBox="0 0 400 400" fill="none" xmlns="http://www.w3.org/2000/svg">
<mask id="mask0_109_366" style="mask-type:alpha" maskUnits="userSpaceOnUse" x="0" y="0" width="400" height="400">
<path d="M0 16C0 7.16345 7.16344 0 16 0H384C392.837 0 400 7.16344 400 16V384C400 392.837 392.837 400 384 400H16C7.16345 400 0 392.837 0 384V16Z" fill="white"/>
</mask>
<g mask="url(#mask0_109_366)">
<path d="M199.077 1.09253L209.811 21.141C212.224 24.8408 214.838 28.1155 217.918 31.1653C226.946 40.0312 235.361 49.4937 243.106 59.4882C261.293 83.2364 273.56 109.609 282.321 138.132C287.575 155.556 290.428 173.43 290.641 191.503C291.521 245.537 272.894 291.933 235.338 330.493C229.229 336.608 222.63 342.218 215.605 347.267C211.884 347.267 210.125 344.429 208.591 341.817C205.799 336.973 203.94 331.653 203.111 326.131C201.792 319.594 200.924 313.057 201.352 306.307V303.257C201.05 302.608 197.77 2.62991 199.077 1.09253V1.09253Z" fill="#777777"/>
<path d="M199.077 0.430006C198.637 -0.44493 198.197 0.217522 197.757 0.64249C197.971 5.01717 196.437 8.91688 194.037 12.6416C191.397 16.3413 187.903 19.1786 184.396 22.2284C164.915 39.0022 149.58 59.2632 137.301 81.924C120.961 112.422 112.54 145.107 110.152 179.517C109.058 191.928 114.098 235.725 118.033 248.362C128.766 281.909 148.047 310.02 173.022 334.418C179.155 340.292 185.716 345.742 192.503 350.979C194.477 350.979 194.69 349.229 195.143 347.929C196.008 345.148 196.668 342.307 197.116 339.43L201.515 306.757L199.077 0.430006Z" fill="#999999"/>
<path d="M209.811 360.541C210.251 355.541 212.664 351.391 215.291 347.254C212.651 346.167 210.691 344.004 209.157 341.592C207.835 339.308 206.741 336.901 205.889 334.405C202.823 325.256 202.169 315.657 201.289 306.307V300.645C200.196 301.52 199.969 308.92 199.969 310.02C199.33 319.901 198.011 329.727 196.023 339.43C195.369 343.354 194.929 347.267 192.503 350.754C192.503 351.191 192.503 351.629 192.717 352.279C196.664 363.828 197.745 375.589 198.411 387.576V391.951C198.411 397.175 198.197 396.075 202.559 397.825C204.318 398.475 206.279 398.7 208.039 400C209.358 400 209.572 398.912 209.572 398.038L208.918 390.851V370.802C208.705 367.303 209.358 363.828 209.798 360.553L209.811 360.541Z" fill="#C2BFBF"/>
</g>
</svg>
