<svg width="400" height="400" viewBox="0 0 400 400" fill="none" xmlns="http://www.w3.org/2000/svg">
<mask id="mask0_109_398" style="mask-type:alpha" maskUnits="userSpaceOnUse" x="0" y="0" width="400" height="400">
<path d="M0 16C0 7.16345 7.16344 0 16 0H384C392.837 0 400 7.16344 400 16V384C400 392.837 392.837 400 384 400H16C7.16345 400 0 392.837 0 384V16Z" fill="white"/>
</mask>
<g mask="url(#mask0_109_398)">
<path d="M128.968 362.225C128.968 373.179 128.968 384.133 128.968 395.531C127.414 395.605 126.008 395.679 124.306 395.827C124.306 366.814 124.306 338.171 124.306 309.085C125.638 309.011 127.044 308.863 128.894 308.789C128.894 313.229 128.894 317.3 128.894 321.371C129.19 321.593 129.56 321.741 129.856 321.963C130.226 321.297 130.597 320.631 130.967 319.965C139.404 302.868 167.528 302.868 177.076 321.075C183.885 334.027 183.737 347.571 177.446 360.671C173.894 367.998 167.603 372.439 159.535 373.475C154.946 374.067 150.062 374.067 145.547 373.327C138.664 372.291 133.261 368.442 130.226 361.781C129.708 361.929 129.338 362.077 128.968 362.225ZM128.45 340.614C128.672 340.688 128.894 340.762 129.116 340.836C129.486 344.166 129.56 347.497 130.152 350.753C132.151 361.707 139.182 368.442 149.692 369.701C160.571 370.959 170.119 365.556 174.116 355.416C178.408 344.462 178.112 333.509 172.339 323.073C167.825 314.858 160.497 311.601 151.246 312.045C142.512 312.415 136.147 316.486 132.743 324.331C130.523 329.438 129.782 335.137 128.45 340.614Z" fill="#999999"/>
<path d="M5.51598 341.651C5.44197 356.971 13.0652 367.555 25.2772 369.479C37.7852 371.403 45.4084 366.445 52.3655 351.272C53.6237 351.272 54.9559 351.272 56.2141 351.272C56.4362 351.79 56.7322 352.16 56.6582 352.456C52.0695 369.923 37.3411 378.286 20.0963 373.18C12.9912 371.033 7.44029 366.741 4.33179 360.005C-1.66318 346.905 -1.58917 333.583 5.51598 321.001C12.5471 308.567 23.5009 306.199 35.1948 307.901C45.8525 309.455 54.4379 318.559 56.6582 330.179C57.3243 333.731 57.3983 337.432 57.8424 341.725C40.0055 341.651 22.8348 341.651 5.51598 341.651ZM6.2561 336.988C21.4285 336.988 36.675 336.988 51.8474 336.988C52.3655 323.148 43.04 312.786 30.754 311.972C17.7279 311.158 5.73801 322.333 6.2561 336.988Z" fill="#999999"/>
<path d="M227.996 341.724C227.922 357.118 235.027 367.332 247.239 369.182C258.785 370.958 269.368 367.554 274.401 351.345C275.733 351.271 277.214 351.197 278.62 351.123C278.842 351.789 279.064 352.159 278.99 352.455C275.289 367.702 265.298 374.955 249.385 374.141C234.953 373.401 224.961 363.631 223.111 348.163C222.075 339.059 222.741 330.178 227.255 321.889C232.954 311.379 243.168 306.272 255.824 307.604C266.186 308.64 275.363 316.486 278.25 327.365C279.434 331.806 279.582 336.543 280.322 341.798C270.849 341.798 262.263 341.798 253.678 341.798C245.314 341.724 236.951 341.724 227.996 341.724ZM228.218 336.987C243.686 336.987 259.081 336.987 274.475 336.987C274.475 323.369 265.816 313.007 254.418 312.045C239.097 310.787 228.884 322.333 228.218 336.987Z" fill="#999999"/>
<path d="M397.927 327.959C396.003 327.811 394.745 327.737 393.486 327.663C391.414 316.339 386.233 311.973 374.909 312.121C371.061 312.195 367.064 312.639 363.438 313.897C358.997 315.451 355.888 318.856 355.814 324.037C355.74 329.366 358.923 332.548 363.438 334.102C368.174 335.805 373.281 336.693 378.166 338.025C382.311 339.135 386.603 340.023 390.526 341.577C396.299 343.872 399.407 348.313 399.925 354.604C400.444 361.339 398.297 366.816 392.302 369.924C381.348 375.623 370.025 375.919 359.071 370.22C352.114 366.594 348.931 360.228 348.709 351.939C350.337 351.939 351.744 351.939 353.15 351.939C357.221 367.852 374.095 374.809 388.454 366.668C392.672 364.299 395.189 360.821 395.041 355.714C394.893 350.755 392.154 347.498 387.862 345.944C382.903 344.168 377.722 343.132 372.689 341.577C367.878 340.097 362.845 338.913 358.257 336.841C348.191 332.326 347.895 315.599 358.775 310.567C368.544 306.052 378.61 305.682 388.306 310.27C395.115 313.601 398.149 319.67 397.927 327.959Z" fill="#999999"/>
<path d="M288.611 352.086C290.092 352.012 291.498 351.938 293.2 351.79C294.236 359.414 297.863 364.89 304.82 367.703C312.739 370.885 320.584 370.367 328.208 366.741C332.648 364.668 335.017 360.968 334.943 355.935C334.869 351.05 332.278 347.646 327.912 346.017C322.805 344.167 317.402 343.131 312.147 341.577C307.632 340.244 303.044 339.134 298.825 337.284C293.052 334.768 290.61 329.809 290.684 323.518C290.758 317.375 293.718 312.86 299.121 310.492C308.521 306.273 318.29 305.903 327.69 310.122C334.721 313.304 337.977 319.373 337.829 327.662C336.275 327.736 334.795 327.81 333.463 327.885C331.242 316.413 326.283 312.046 314.96 312.194C310.741 312.268 306.374 313.082 302.452 314.488C298.085 316.043 295.642 319.669 295.716 324.554C295.864 329.217 298.529 332.399 302.674 333.805C307.854 335.582 313.257 336.618 318.512 338.172C323.027 339.43 327.616 340.615 331.908 342.465C341.53 346.462 343.232 362.818 333.389 369.479C324.359 375.622 306.374 375.77 297.493 369.553C291.868 365.631 289.499 360.968 288.611 352.086Z" fill="#999999"/>
<path d="M91.5178 339.208C99.9552 350.384 108.022 361.116 116.608 372.513C114.313 372.661 112.537 372.809 110.317 372.957C103.138 363.262 95.9585 353.492 88.2613 343.057C80.7121 353.048 73.4589 362.596 65.9837 372.513C64.3555 372.513 62.5052 372.513 59.7667 372.513C68.2041 361.264 76.2714 350.532 84.7087 339.208C77.0855 329.216 69.3883 319.225 61.395 308.789C64.0594 308.789 66.0577 308.789 68.1301 308.789C74.7171 317.449 81.3042 326.182 88.1873 335.285C95.0704 326.256 101.583 317.671 108.245 308.937C110.095 308.937 111.945 308.937 114.536 308.937C106.764 319.151 99.2891 328.92 91.5178 339.208Z" fill="#999999"/>
<path d="M199.501 319.3C205.718 311.677 212.083 308.717 222.297 308.865C222.445 310.049 222.593 311.307 222.741 312.639C222.001 312.935 221.483 313.379 220.965 313.379C209.493 312.713 197.651 322.483 197.577 336.915C197.503 347.129 197.503 357.343 197.503 367.556C197.503 369.11 197.503 370.665 197.503 372.515C195.727 372.515 194.32 372.515 192.692 372.515C192.692 351.348 192.692 330.476 192.692 309.087C194.172 309.013 195.579 308.939 197.503 308.865C197.503 312.565 197.503 315.896 197.503 319.226C197.503 320.189 197.503 321.151 197.503 322.113C197.799 322.187 198.021 322.187 198.317 322.261C198.687 321.225 199.057 320.263 199.501 319.3Z" fill="#999999"/>
<path d="M187.835 3.20058C195.274 -1.05724 204.963 -1.07647 212.395 3.20058C249.786 24.3283 287.188 45.4229 324.573 66.5635C331.604 70.5243 336.308 78.3497 336.236 86.4518V213.564C336.288 222.002 331.12 230.014 323.702 233.885C286.434 254.897 249.185 275.934 211.924 296.945C204.331 301.286 194.448 300.952 187.093 296.255C175.92 289.778 164.728 283.333 153.554 276.862C151.271 275.501 148.697 274.418 147.084 272.204C148.51 270.283 151.058 270.043 153.129 269.205C157.793 267.721 162.076 265.341 166.361 263.031C167.444 262.289 168.767 262.574 169.805 263.237C179.359 268.715 188.829 274.352 198.415 279.778C200.46 280.959 202.531 279.391 204.279 278.417C240.85 257.747 277.467 237.156 314.031 216.48C315.386 215.829 316.135 214.39 316.025 212.906C316.051 170.975 316.032 129.035 316.038 87.1036C316.193 85.4197 315.218 83.8715 313.696 83.1823C276.557 62.2672 239.438 41.32 202.306 20.3996C201.662 19.9573 200.9 19.72 200.12 19.7188C199.339 19.7177 198.576 19.9528 197.931 20.3932C160.799 41.32 123.686 62.2865 86.554 83.2005C85.0368 83.8907 84.0185 85.4133 84.1991 87.1036C84.2055 129.035 84.1991 170.975 84.1991 212.913C84.1347 213.637 84.2938 214.363 84.6548 214.994C85.0159 215.625 85.5616 216.13 86.2185 216.442C96.1274 222.061 106.049 227.64 115.964 233.24C121.55 236.247 128.409 238.033 134.563 235.73C139.994 233.782 143.801 228.24 143.697 222.473C143.749 180.786 143.672 139.093 143.736 97.4121C143.6 95.5615 145.356 94.0325 147.155 94.2067C151.916 94.1747 156.683 94.1426 161.445 94.2195C163.432 94.1747 164.799 96.1673 164.554 98.0318C164.535 139.983 164.605 181.935 164.522 223.886C164.535 235.066 159.941 247.232 149.6 252.702C136.859 259.302 121.112 257.902 108.526 251.574C97.6297 246.135 87.2314 239.717 76.5286 233.891C69.0911 230.041 63.9486 221.997 64.0009 213.566V86.4518C63.9229 78.1819 68.8133 70.2144 76.0638 66.3113C113.325 45.283 150.58 24.2386 187.835 3.20058Z" fill="#999999"/>
<path d="M220.343 91.2519C236.594 90.2058 253.992 90.6321 268.616 98.6381C279.938 104.773 286.216 117.649 286.415 130.228C286.099 131.925 284.326 132.861 282.706 132.744C277.991 132.738 273.274 132.809 268.559 132.712C266.559 132.789 265.397 130.945 265.146 129.177C263.791 123.158 260.508 117.197 254.843 114.294C246.147 109.94 236.064 110.159 226.582 110.25C219.659 110.618 212.215 111.217 206.35 115.288C201.848 118.372 200.48 124.596 202.087 129.61C203.602 133.209 207.758 134.371 211.157 135.441C230.742 140.563 251.496 140.054 270.707 146.795C278.661 149.543 286.441 154.885 289.164 163.213C292.725 174.374 291.164 187.715 283.223 196.675C276.783 204.048 267.404 208.061 258.05 210.241C245.606 213.016 232.691 213.086 220.053 211.854C208.17 210.5 195.804 207.377 186.63 199.281C178.785 192.469 174.954 181.856 175.334 171.613C175.425 169.883 177.147 168.677 178.804 168.819C183.553 168.78 188.301 168.768 193.049 168.825C194.946 168.69 196.352 170.329 196.449 172.116C197.325 177.851 199.48 183.869 204.481 187.269C214.131 193.495 226.24 193.069 237.29 193.243C246.444 192.837 256.721 192.714 264.191 186.663C268.133 183.212 269.301 177.438 268.236 172.471C267.082 168.277 262.695 166.323 258.927 165.045C239.593 158.929 218.608 161.148 199.461 154.232C191.688 151.485 184.171 146.291 181.185 138.306C177.018 127.004 178.927 113.024 187.7 104.366C196.254 95.7543 208.603 92.4378 220.343 91.2508V91.2519Z" fill="#999999"/>
</g>
</svg>
