<svg width="400" height="400" viewBox="0 0 400 400" fill="none" xmlns="http://www.w3.org/2000/svg">
<mask id="mask0_109_392" style="mask-type:alpha" maskUnits="userSpaceOnUse" x="0" y="0" width="400" height="400">
<path d="M0 16C0 7.16345 7.16344 0 16 0H384C392.837 0 400 7.16344 400 16V384C400 392.837 392.837 400 384 400H16C7.16345 400 0 392.837 0 384V16Z" fill="white"/>
</mask>
<g mask="url(#mask0_109_392)">
<path d="M187.835 3.20058C195.274 -1.05724 204.963 -1.07647 212.395 3.20058C249.786 24.3283 287.188 45.4229 324.573 66.5635C331.604 70.5243 336.308 78.3497 336.236 86.4518V213.564C336.288 222.002 331.12 230.014 323.702 233.885C286.434 254.897 249.185 275.934 211.924 296.945C204.331 301.286 194.448 300.952 187.093 296.255C175.92 289.778 164.728 283.333 153.554 276.862C151.271 275.501 148.697 274.418 147.084 272.204C148.51 270.283 151.058 270.043 153.129 269.205C157.793 267.721 162.076 265.341 166.361 263.031C167.444 262.289 168.767 262.574 169.805 263.237C179.359 268.715 188.829 274.352 198.415 279.778C200.46 280.959 202.531 279.391 204.279 278.417C240.85 257.747 277.467 237.156 314.031 216.48C315.386 215.829 316.135 214.39 316.025 212.906C316.051 170.975 316.032 129.035 316.038 87.1036C316.193 85.4197 315.218 83.8715 313.696 83.1823C276.557 62.2672 239.438 41.32 202.306 20.3996C201.662 19.9573 200.9 19.72 200.12 19.7188C199.339 19.7177 198.576 19.9528 197.931 20.3932C160.799 41.32 123.686 62.2865 86.554 83.2005C85.0368 83.8907 84.0185 85.4133 84.1991 87.1036C84.2055 129.035 84.1991 170.975 84.1991 212.913C84.1347 213.637 84.2938 214.363 84.6548 214.994C85.0159 215.625 85.5616 216.13 86.2185 216.442C96.1274 222.061 106.049 227.64 115.964 233.24C121.55 236.247 128.409 238.033 134.563 235.73C139.994 233.782 143.801 228.24 143.697 222.473C143.749 180.786 143.672 139.093 143.736 97.4121C143.6 95.5615 145.356 94.0325 147.155 94.2067C151.916 94.1747 156.683 94.1426 161.445 94.2195C163.432 94.1747 164.799 96.1673 164.554 98.0318C164.535 139.983 164.605 181.935 164.522 223.886C164.535 235.066 159.941 247.232 149.6 252.702C136.859 259.302 121.112 257.902 108.526 251.574C97.6297 246.135 87.2314 239.717 76.5286 233.891C69.0911 230.041 63.9486 221.997 64.0009 213.566V86.4518C63.9229 78.1819 68.8133 70.2144 76.0638 66.3113C113.325 45.283 150.58 24.2386 187.835 3.20058Z" fill="#999999"/>
<path d="M220.343 91.2519C236.594 90.2058 253.992 90.6321 268.616 98.6381C279.938 104.773 286.216 117.649 286.415 130.228C286.099 131.925 284.325 132.861 282.706 132.744C277.99 132.738 273.274 132.809 268.559 132.712C266.559 132.789 265.397 130.945 265.145 129.177C263.791 123.158 260.508 117.197 254.843 114.294C246.147 109.94 236.064 110.159 226.582 110.25C219.659 110.618 212.215 111.217 206.35 115.288C201.848 118.372 200.48 124.596 202.087 129.61C203.602 133.209 207.757 134.371 211.157 135.441C230.742 140.563 251.496 140.054 270.707 146.795C278.66 149.543 286.441 154.885 289.163 163.213C292.725 174.374 291.164 187.715 283.223 196.675C276.783 204.048 267.404 208.061 258.05 210.241C245.605 213.016 232.691 213.086 220.053 211.854C208.17 210.5 195.803 207.377 186.63 199.281C178.785 192.469 174.954 181.856 175.334 171.613C175.425 169.883 177.147 168.677 178.804 168.819C183.552 168.78 188.301 168.768 193.049 168.825C194.945 168.69 196.352 170.329 196.449 172.116C197.325 177.851 199.48 183.869 204.48 187.269C214.131 193.495 226.24 193.069 237.29 193.243C246.444 192.837 256.721 192.714 264.191 186.663C268.133 183.212 269.301 177.438 268.235 172.471C267.082 168.277 262.694 166.323 258.927 165.045C239.593 158.929 218.608 161.148 199.461 154.232C191.688 151.485 184.171 146.291 181.185 138.306C177.018 127.004 178.927 113.024 187.7 104.366C196.254 95.7543 208.603 92.4378 220.343 91.2508V91.2519Z" fill="#999999"/>
</g>
</svg>
