<svg width="153" height="153" viewBox="0 0 153 153" fill="none" xmlns="http://www.w3.org/2000/svg">
<path d="M76.5002 0C118.75 0 153 34.2503 153 76.5002C153 118.75 118.75 153 76.5002 153C34.2502 153 0 118.75 0 76.5002C0 34.2503 34.2502 0 76.5002 0ZM98.9794 110.918H54.0209C59.0083 129.383 67.6773 141.527 76.5002 141.527C85.3232 141.527 93.9916 129.383 98.9794 110.918ZM42.144 110.922L21.3201 110.921C28.6503 122.647 39.6145 131.869 52.6357 137.009C48.6409 130.738 45.3443 122.888 42.9196 113.944L42.144 110.922ZM131.68 110.921L110.856 110.922C108.38 121.124 104.803 130.041 100.356 137.009C112.571 132.19 122.971 123.784 130.264 113.09L131.68 110.921ZM38.9706 61.1976H13.2888L13.2524 61.3295C12.0891 66.1965 11.4732 71.276 11.4732 76.5002C11.4732 84.5789 12.9463 92.3126 15.6385 99.449L39.9095 99.4459C38.821 92.1864 38.2441 84.4749 38.2441 76.5002C38.2441 71.2684 38.4924 66.1498 38.9706 61.1976ZM102.483 61.198H50.5176C49.9973 66.0955 49.7173 71.2179 49.7173 76.5002C49.7173 84.6041 50.3763 92.3317 51.551 99.4475H101.449C102.624 92.3317 103.283 84.6041 103.283 76.5002C103.283 71.2179 103.003 66.0955 102.483 61.198ZM139.715 61.1911L114.03 61.1977C114.508 66.1498 114.756 71.2684 114.756 76.5002C114.756 84.4749 114.179 92.1864 113.091 99.4459L137.362 99.449C140.054 92.3126 141.527 84.5789 141.527 76.5002C141.527 71.2271 140.9 66.1008 139.715 61.1911ZM52.6438 15.9914L52.4686 16.0581C36.8091 22.2897 24.1425 34.4308 17.2228 49.7274L40.5373 49.7302C42.9342 36.3234 47.1169 24.6518 52.6438 15.9914ZM76.5002 11.4733L75.6153 11.5138C65.9364 12.3991 56.5858 27.7119 52.2435 49.727H100.757C96.4262 27.7736 87.116 12.485 77.4663 11.5215L76.5002 11.4733ZM100.365 15.9919L101.181 17.3235C106.3 25.8326 110.187 36.9989 112.463 49.7302L135.777 49.7274C129.164 35.1074 117.301 23.3699 102.592 16.9195L100.365 15.9919Z" fill="black"/>
</svg>
